<svg id="Layer_1" enable-background="new 0 0 256 256" height="512" viewBox="0 0 256 256" width="512" xmlns="http://www.w3.org/2000/svg"><g><g><path d="m176.298 138.856h-100.018c-5.164 0-10.001 2.524-12.955 6.76l-52.641 75.484 34.247 23.98 23.107-33.001v33.001h116.455v-33.79l23.66 33.79 34.247-23.98-53.189-75.543c-2.957-4.201-7.775-6.701-12.913-6.701z" fill="#4671c6"/></g><g><path d="m44.932 247.081c-.407 0-.809-.125-1.147-.362l-34.247-23.98c-.903-.633-1.124-1.877-.493-2.782l52.641-75.484c3.326-4.769 8.782-7.616 14.596-7.616h100.018c5.782 0 11.222 2.822 14.55 7.55l53.189 75.543c.306.435.426.973.334 1.496-.091.523-.388.989-.822 1.293l-34.248 23.98c-.435.305-.968.423-1.495.332-.522-.092-.986-.388-1.291-.823l-20.021-28.594v27.447c0 1.104-.896 2-2 2h-116.457c-1.104 0-2-.896-2-2v-26.658l-19.469 27.805c-.305.435-.769.73-1.291.823-.116.019-.232.03-.347.03zm25.107-4h112.455v-31.79c0-.873.566-1.645 1.398-1.907.831-.263 1.739.045 2.24.76l22.512 32.151 30.967-21.683-52.035-73.903c-2.579-3.665-6.796-5.853-11.278-5.853h-100.018c-4.507 0-8.736 2.207-11.314 5.904l-51.499 73.847 30.974 21.688 21.96-31.362c.502-.716 1.408-1.026 2.24-.76.832.262 1.398 1.034 1.398 1.907z" fill="#3762cc"/></g><g><path d="m148.467 116.656v13.32h73.816c1.839 0 3.33-1.491 3.33-3.33v-22.011c0-2.113-1.943-3.692-4.011-3.26z" fill="#4671c6"/></g><g><path d="m222.282 131.976h-73.815c-1.104 0-2-.896-2-2v-13.32c0-.947.664-1.764 1.591-1.958l73.135-15.28c1.58-.333 3.201.064 4.451 1.081 1.251 1.017 1.969 2.524 1.969 4.137v22.011c-.001 2.938-2.391 5.329-5.331 5.329zm-71.815-4h71.815c.733 0 1.33-.597 1.33-1.33v-22.011c0-.551-.308-.883-.491-1.032s-.57-.381-1.11-.27l-71.544 14.948z" fill="#3762cc"/></g><g><path d="m148.467 138.856h94.351c1.839 0 3.33-1.491 3.33-3.33v-17.809c0-2.025-1.793-3.582-3.798-3.297l-93.882 13.336v11.1z" fill="#4671c6"/></g><g><path d="m242.817 140.856h-94.351c-1.104 0-2-.896-2-2v-11.1c0-.996.732-1.84 1.719-1.98l93.882-13.335c1.532-.217 3.077.239 4.244 1.251 1.167 1.013 1.836 2.48 1.836 4.025v17.809c0 2.939-2.39 5.33-5.33 5.33zm-92.35-4h92.351c.733 0 1.33-.597 1.33-1.33v-17.809c0-.528-.287-.856-.458-1.004-.172-.148-.525-.39-1.06-.313l-92.163 13.091z" fill="#3762cc"/></g><g><path d="m104.066 105.926h44.4v32.93h-44.4z" fill="#f9cfcf"/></g><g><path d="m104.066 116.656h44.4v22.2h-44.4z" fill="#4671c6"/></g><g><path d="m126.266 138.856h-22.2l22.2 22.618 22.201-22.618z" fill="#a4c9ff"/></g><g><path d="m126.267 163.475c-.537 0-1.051-.216-1.428-.599l-22.2-22.619c-.563-.575-.729-1.432-.416-2.175.312-.743 1.038-1.226 1.844-1.226h44.4c.806 0 1.532.483 1.844 1.226.313.743.147 1.6-.416 2.175l-22.2 22.619c-.378.383-.891.599-1.428.599zm-17.435-22.619 17.435 17.764 17.435-17.764z" fill="#3762cc"/></g><g><path d="m148.467 140.856c-1.104 0-2-.896-2-2v-20.2h-40.4v20.2c0 1.104-.896 2-2 2s-2-.896-2-2v-22.2c0-1.104.896-2 2-2h44.4c1.104 0 2 .896 2 2v22.2c0 1.104-.896 2-2 2z" fill="#3762cc"/></g><g><path d="m126.573 129.976h-.614c-28.059 0-50.805-22.746-50.805-50.805v-22.711c0-28.059 22.746-50.805 50.805-50.805h.614c28.059 0 50.805 22.746 50.805 50.805v22.71c.001 28.059-22.746 50.806-50.805 50.806z" fill="#4671c6"/></g><g><path d="m159.034 77.25h-65.535c-4.036 0-7.309-3.272-7.309-7.309v-17.309c0-1.73 1.402-3.132 3.132-3.132h73.888c1.73 0 3.132 1.402 3.132 3.132v17.309c.001 4.037-3.271 7.309-7.308 7.309z" fill="#f9cfcf"/></g><g><path d="m126.573 131.976h-.613c-29.117 0-52.806-23.688-52.806-52.805v-22.711c0-29.117 23.688-52.806 52.806-52.806h.613c29.117 0 52.806 23.688 52.806 52.806v22.71c0 29.117-23.689 52.806-52.806 52.806zm-.613-124.321c-26.911 0-48.806 21.894-48.806 48.806v22.71c0 26.911 21.895 48.805 48.806 48.805h.613c26.911 0 48.806-21.894 48.806-48.805v-22.711c0-26.912-21.895-48.806-48.806-48.806h-.613z" fill="#3762cc"/></g><g><path d="m105.091 211.809h-84.78c-5.59 0-10.143 4.492-10.219 10.081l-.238 17.58c-.08 5.894 4.829 10.633 10.716 10.346l84.522-4.116v-33.891z" fill="#4671c6"/></g><g><path d="m147.441 212.037h84.781c5.59 0 10.143 4.492 10.219 10.081l.238 17.579c.08 5.894-4.829 10.633-10.716 10.346l-84.522-4.116z" fill="#4671c6"/></g><g><path d="m20.051 251.829c-3.176 0-6.162-1.205-8.466-3.429-2.452-2.367-3.777-5.548-3.731-8.957l.238-17.579c.09-6.646 5.571-12.054 12.219-12.054h84.781c1.104 0 2 .896 2 2v33.89c0 1.067-.837 1.946-1.902 1.998l-84.522 4.116c-.207.01-.413.015-.617.015zm.26-38.02c-4.472 0-8.159 3.637-8.219 8.108l-.238 17.58c-.031 2.292.86 4.432 2.51 6.025s3.82 2.406 6.108 2.296l82.62-4.023v-29.986z" fill="#3762cc"/></g><g><path d="m232.48 252.057c-.204 0-.409-.005-.615-.015l-84.521-4.116c-1.065-.052-1.902-.931-1.902-1.998v-33.891c0-1.104.896-2 2-2h84.781c6.646 0 12.128 5.408 12.219 12.054l.238 17.579c.046 3.409-1.279 6.59-3.732 8.957-2.304 2.225-5.291 3.43-8.468 3.43zm-83.039-8.034 82.619 4.023c2.286.113 4.459-.705 6.108-2.296 1.65-1.593 2.542-3.732 2.511-6.025l-.238-17.579c-.061-4.471-3.748-8.109-8.219-8.109h-82.781z" fill="#3762cc"/></g><g><path d="m122.086 174.47c-2.309 0-4.181 1.872-4.181 4.181v22.917h-1.239l-17.652 10.241v34.82c0 2.053 1.664 3.716 3.716 3.716h19.82c2.053 0 3.716-1.664 3.716-3.716v-17.962-16.858-10.241-22.917c0-2.309-1.871-4.181-4.18-4.181z" fill="#f9cfcf"/></g><g><path d="m135.867 201.569h-1.239v-22.917c0-2.309-1.872-4.181-4.181-4.181s-4.181 1.872-4.181 4.181v22.917 10.241 16.858 17.962c0 2.053 1.664 3.716 3.716 3.716h19.82c2.053 0 3.716-1.664 3.716-3.716v-34.82z" fill="#f9cfcf"/></g><g><path d="m122.55 252.345h-19.82c-3.151 0-5.716-2.564-5.716-5.716v-34.82c0-.713.38-1.372.996-1.73l17.652-10.24c.078-.045.159-.085.242-.119v-21.068c0-3.408 2.773-6.181 6.182-6.181s6.181 2.773 6.181 6.181v67.978c0 3.151-2.565 5.715-5.717 5.715zm-21.536-39.384v33.668c0 .946.77 1.716 1.716 1.716h19.82c.946 0 1.717-.77 1.717-1.716v-67.978c0-1.203-.979-2.181-2.181-2.181-1.203 0-2.182.979-2.182 2.181v22.917c0 1.104-.896 2-2 2h-.7z" fill="#3762cc"/></g><g><path d="m149.803 252.345h-19.82c-3.151 0-5.716-2.564-5.716-5.716v-67.978c0-3.408 2.772-6.181 6.181-6.181s6.181 2.773 6.181 6.181v21.068c.083.034.164.074.243.12l17.652 10.24c.616.358.996 1.017.996 1.73v34.82c0 3.152-2.565 5.716-5.717 5.716zm-19.356-75.875c-1.202 0-2.181.979-2.181 2.181v67.978c0 .946.77 1.716 1.716 1.716h19.82c.946 0 1.717-.77 1.717-1.716v-33.668l-16.19-9.392h-.701c-1.104 0-2-.896-2-2v-22.917c0-1.203-.979-2.182-2.181-2.182z" fill="#3762cc"/></g><g><path d="m111.603 218.779c-.543 0-1.091-.117-1.613-.354-1.392-.635-2.257-1.98-2.257-3.511v-7.097c0-2.084 1.12-4.028 2.923-5.073l5.007-2.905c.306-.177.651-.27 1.004-.27h9.601c1.104 0 2 .896 2 2v10.24c0 1.104-.896 2-2 2h-7.521l-4.626 4.018c-.724.628-1.613.952-2.518.952zm5.601-15.21-4.542 2.635c-.573.333-.93.951-.93 1.613v6.785l4.955-4.304c.364-.316.83-.49 1.312-.49h6.268v-6.24h-7.063z" fill="#3762cc"/></g><g><path d="m111.603 229.02c-.543 0-1.092-.117-1.613-.354-1.393-.635-2.257-1.98-2.257-3.51v-4.403c0-1.699.735-3.313 2.018-4.428l6.938-6.025c.364-.316.83-.49 1.312-.49h8.268c1.104 0 2 .896 2 2v10.241c0 1.104-.896 2-2 2h-7.521l-4.626 4.018c-.725.626-1.614.951-2.519.951zm7.143-15.211-6.372 5.534c-.407.354-.642.868-.642 1.408v4.092l4.955-4.304c.364-.316.83-.49 1.312-.49h6.268v-6.241h-5.521z" fill="#3762cc"/></g><g><path d="m111.603 239.319c-.543 0-1.091-.117-1.613-.354-1.392-.635-2.257-1.98-2.257-3.511v-4.403c0-1.7.735-3.313 2.019-4.428l6.937-6.024c.364-.316.83-.49 1.312-.49h8.268c1.104 0 2 .896 2 2v10.24c0 1.104-.896 2-2 2h-7.521l-4.626 4.018c-.725.628-1.614.952-2.519.952zm7.143-15.21-6.372 5.534c-.407.354-.642.867-.642 1.408v4.092l4.955-4.304c.364-.316.83-.49 1.312-.49h6.268v-6.24z" fill="#3762cc"/></g><g><path d="m140.931 218.779c-.906 0-1.796-.325-2.519-.953l-4.626-4.017h-7.52c-1.104 0-2-.896-2-2v-10.24c0-1.104.896-2 2-2h9.601c.353 0 .698.093 1.004.27l5.008 2.905c1.802 1.045 2.922 2.989 2.922 5.073v7.097c0 1.531-.865 2.876-2.258 3.511-.522.238-1.07.354-1.612.354zm-12.664-8.97h6.267c.481 0 .947.174 1.312.49l4.956 4.304v-6.785c0-.663-.356-1.281-.929-1.613l-4.543-2.635h-7.063z" fill="#3762cc"/></g><g><path d="m140.931 229.02c-.906 0-1.795-.325-2.518-.952l-4.627-4.018h-7.52c-1.104 0-2-.896-2-2v-10.241c0-1.104.896-2 2-2h8.267c.481 0 .947.174 1.312.49l6.937 6.024c1.283 1.115 2.02 2.729 2.02 4.429v4.403c0 1.53-.865 2.875-2.258 3.51-.523.238-1.071.355-1.613.355zm-12.664-8.97h6.267c.481 0 .947.174 1.312.49l4.956 4.304v-4.092c0-.541-.234-1.054-.643-1.408l-6.372-5.534h-5.52z" fill="#3762cc"/></g><g><path d="m140.931 239.319c-.906 0-1.796-.325-2.519-.953l-4.626-4.017h-7.52c-1.104 0-2-.896-2-2v-10.24c0-1.104.896-2 2-2h8.267c.481 0 .947.174 1.312.49l6.937 6.024c1.283 1.114 2.02 2.728 2.02 4.428v4.403c0 1.531-.865 2.876-2.258 3.511-.523.238-1.071.354-1.613.354zm-12.664-8.97h6.267c.481 0 .947.174 1.312.49l4.956 4.304v-4.092c0-.541-.234-1.053-.642-1.407l-6.373-5.535h-5.52z" fill="#3762cc"/></g><g><path d="m159.034 79.25h-65.535c-5.133 0-9.309-4.176-9.309-9.309v-17.31c0-2.83 2.302-5.132 5.132-5.132h73.889c2.83 0 5.132 2.302 5.132 5.132v17.31c0 5.134-4.176 9.309-9.309 9.309zm-69.712-27.75c-.624 0-1.132.508-1.132 1.132v17.31c0 2.927 2.382 5.309 5.309 5.309h65.535c2.927 0 5.309-2.381 5.309-5.309v-17.31c0-.625-.508-1.132-1.132-1.132z" fill="#3762cc"/></g><g><path d="m68.039 214.08c-1.104 0-2-.896-2-2v-49.875c0-1.104.896-2 2-2s2 .896 2 2v49.875c0 1.104-.895 2-2 2z" fill="#3762cc"/></g><g><path d="m184.494 213.291c-1.104 0-2-.896-2-2v-47.969c0-1.104.896-2 2-2s2 .896 2 2v47.969c0 1.104-.895 2-2 2z" fill="#3762cc"/></g><g><path d="m106.303 71.479c-2.498 0-4.523-2.025-4.523-4.523v-5.427c0-2.498 2.025-4.523 4.523-4.523 2.498 0 4.523 2.025 4.523 4.523v5.427c.001 2.497-2.024 4.523-4.523 4.523z" fill="#3762cc"/></g><g><path d="m146.23 71.479c-2.498 0-4.523-2.025-4.523-4.523v-5.427c0-2.498 2.025-4.523 4.523-4.523 2.498 0 4.523 2.025 4.523 4.523v5.427c0 2.497-2.025 4.523-4.523 4.523z" fill="#3762cc"/></g><g><path d="m99.014 220.062c-1.104 0-2-.896-2-2v-25.46c0-2.688 1.037-5.226 2.92-7.145l24.905-25.383c.773-.788 2.041-.8 2.828-.027.789.774.801 2.04.027 2.829l-24.905 25.383c-1.146 1.166-1.775 2.708-1.775 4.343v25.46c0 1.104-.896 2-2 2z" fill="#3762cc"/></g></g></svg>